<svg version="1.1" id="Layer_1" xmlns="http://www.w3.org/2000/svg" xmlns:xlink="http://www.w3.org/1999/xlink" x="0px" y="0px"
	 width="100%" viewBox="0 0 512 512" enable-background="new 0 0 512 512" xml:space="preserve">
<path fill="#FFFFFF" opacity="1.000000" stroke="none" 
	d="
M285.000000,513.000000 
	C190.023056,513.000000 95.546112,513.000000 1.034582,513.000000 
	C1.034582,342.398041 1.034582,171.796051 1.034582,1.097036 
	C171.560287,1.097036 342.120667,1.097036 512.840515,1.097036 
	C512.840515,171.666550 512.840515,342.333252 512.840515,513.000000 
	C437.129364,513.000000 361.314667,513.000000 285.000000,513.000000 
M22.003317,354.497040 
	C22.010401,358.329224 21.947866,362.163025 22.036192,365.993317 
	C22.507912,386.449921 39.214371,402.839325 59.722923,402.987122 
	C64.721230,403.023132 69.725052,403.143768 74.716866,402.963440 
	C78.684265,402.820099 81.159027,404.071045 82.712807,408.055969 
	C85.964851,416.396393 91.150970,423.522461 97.942238,429.406891 
	C112.503410,442.023529 129.339218,447.317200 148.393723,444.116669 
	C170.197998,440.454254 185.625580,428.117157 194.880447,408.120667 
	C196.449341,404.730896 198.324112,402.932892 202.339111,402.948669 
	C234.162613,403.073578 265.986877,403.050446 297.810730,402.979401 
	C301.676208,402.970764 303.876434,404.433441 305.287567,408.122192 
	C309.279358,418.557068 316.591034,426.598663 325.367493,433.106415 
	C356.032562,455.844635 401.484283,445.386322 417.731567,407.576172 
	C419.090088,404.414703 421.019806,402.923035 424.539978,402.973907 
	C433.701904,403.106232 442.867188,403.007721 452.031128,402.995422 
	C475.822388,402.963531 491.932007,386.965363 491.985535,363.242981 
	C492.029144,343.915405 491.920990,324.587250 492.017151,305.260040 
	C492.105591,287.478760 484.100433,274.741882 468.390411,266.728729 
	C458.893738,261.884796 449.171631,257.454559 439.881409,252.248489 
	C436.280914,250.230850 432.666962,247.111481 430.664520,243.582977 
	C425.090302,233.760605 420.375641,223.451569 415.287292,213.351974 
	C409.903412,202.665710 405.004639,191.689789 398.936218,181.405533 
	C391.956207,169.576401 380.937439,163.313889 367.113037,163.077545 
	C349.956360,162.784241 332.790894,162.993439 315.629211,163.011139 
	C306.108765,163.020950 302.910309,165.219788 299.820923,174.245697 
	C295.776428,186.062164 292.079376,198.000717 287.861633,209.753540 
	C285.549683,216.195892 286.618774,221.696381 290.381409,227.154907 
	C295.480255,234.551895 300.364075,242.097916 305.297516,249.607971 
	C312.190674,260.101227 312.299957,257.166199 305.277649,268.131317 
	C296.787567,281.388306 286.216644,293.504333 282.605743,309.457245 
	C282.391418,310.404266 281.366516,311.167786 280.319580,312.539978 
	C278.937042,310.627686 277.850525,309.205597 276.849030,307.725922 
	C271.860535,300.355560 271.990631,300.436951 277.184143,293.117126 
	C281.518036,287.008850 285.654480,280.749420 289.630402,274.401642 
	C293.067749,268.913696 292.812012,263.437073 288.823517,258.147583 
	C280.104950,246.585098 271.553253,234.895767 262.745972,223.401825 
	C260.362671,220.291458 260.222809,217.984695 263.173431,215.261017 
	C266.965607,211.760437 270.523254,208.004257 274.154388,204.330994 
	C282.408630,195.981064 281.873535,188.522522 272.470978,181.334747 
	C265.991943,176.381821 259.679840,171.161530 252.862671,166.721695 
	C249.713882,164.670990 245.568588,163.311798 241.819412,163.175919 
	C229.672150,162.735687 217.498856,163.055359 205.336044,162.992737 
	C188.130966,162.904144 175.780258,170.733383 168.067230,185.926407 
	C159.621948,202.561844 151.039093,219.140396 143.148560,236.039032 
	C139.186966,244.523315 133.281830,249.134720 124.278168,251.264175 
	C100.463295,256.896637 76.760284,263.005646 53.036724,269.019531 
	C33.513241,273.968719 22.049442,288.808136 22.010351,309.011017 
	C21.981657,323.839996 22.003828,338.669067 22.003317,354.497040 
M276.017456,104.526482 
	C272.296783,95.282310 268.773224,85.952171 264.790771,76.822182 
	C261.805328,69.977905 255.313217,67.464371 248.769821,70.007095 
	C242.680206,72.373489 239.441452,78.957443 241.889297,85.639053 
	C246.400253,97.952087 251.199326,110.170029 256.270264,122.263245 
	C259.018921,128.818222 265.731140,131.278091 271.987183,128.798157 
	C278.187714,126.340233 281.182434,119.927971 279.133057,113.229683 
	C278.308380,110.534225 277.211395,107.922073 276.017456,104.526482 
M333.821533,99.225761 
	C335.489014,94.697121 337.348389,90.228142 338.779358,85.625961 
	C340.960815,78.610069 338.192169,72.675903 331.819305,70.015144 
	C325.560577,67.402039 318.885681,69.714157 316.036438,76.411079 
	C310.956085,88.351944 306.072479,100.412048 301.969299,112.710129 
	C300.827209,116.133339 301.482239,121.380089 303.454926,124.383095 
	C308.814819,132.542404 320.244629,131.093842 324.364136,122.089081 
	C327.685730,114.828514 330.495605,107.333862 333.821533,99.225761 
z"/>
<path fill="#1C2328" opacity="1.000000" stroke="none" 
	d="
M22.003323,353.997559 
	C22.003828,338.669067 21.981657,323.839996 22.010351,309.011017 
	C22.049442,288.808136 33.513241,273.968719 53.036724,269.019531 
	C76.760284,263.005646 100.463295,256.896637 124.278168,251.264175 
	C133.281830,249.134720 139.186966,244.523315 143.148560,236.039032 
	C151.039093,219.140396 159.621948,202.561844 168.067230,185.926407 
	C175.780258,170.733383 188.130966,162.904144 205.336044,162.992737 
	C217.498856,163.055359 229.672150,162.735687 241.819412,163.175919 
	C245.568588,163.311798 249.713882,164.670990 252.862671,166.721695 
	C259.679840,171.161530 265.991943,176.381821 272.470978,181.334747 
	C281.873535,188.522522 282.408630,195.981064 274.154388,204.330994 
	C270.523254,208.004257 266.965607,211.760437 263.173431,215.261017 
	C260.222809,217.984695 260.362671,220.291458 262.745972,223.401825 
	C271.553253,234.895767 280.104950,246.585098 288.823517,258.147583 
	C292.812012,263.437073 293.067749,268.913696 289.630402,274.401642 
	C285.654480,280.749420 281.518036,287.008850 277.184143,293.117126 
	C271.990631,300.436951 271.860535,300.355560 276.849030,307.725922 
	C277.850525,309.205597 278.937042,310.627686 280.319580,312.539978 
	C281.366516,311.167786 282.391418,310.404266 282.605743,309.457245 
	C286.216644,293.504333 296.787567,281.388306 305.277649,268.131317 
	C312.299957,257.166199 312.190674,260.101227 305.297516,249.607971 
	C300.364075,242.097916 295.480255,234.551895 290.381409,227.154907 
	C286.618774,221.696381 285.549683,216.195892 287.861633,209.753540 
	C292.079376,198.000717 295.776428,186.062164 299.820923,174.245697 
	C302.910309,165.219788 306.108765,163.020950 315.629211,163.011139 
	C332.790894,162.993439 349.956360,162.784241 367.113037,163.077545 
	C380.937439,163.313889 391.956207,169.576401 398.936218,181.405533 
	C405.004639,191.689789 409.903412,202.665710 415.287292,213.351974 
	C420.375641,223.451569 425.090302,233.760605 430.664520,243.582977 
	C432.666962,247.111481 436.280914,250.230850 439.881409,252.248489 
	C449.171631,257.454559 458.893738,261.884796 468.390411,266.728729 
	C484.100433,274.741882 492.105591,287.478760 492.017151,305.260040 
	C491.920990,324.587250 492.029144,343.915405 491.985535,363.242981 
	C491.932007,386.965363 475.822388,402.963531 452.031128,402.995422 
	C442.867188,403.007721 433.701904,403.106232 424.539978,402.973907 
	C421.019806,402.923035 419.090088,404.414703 417.731567,407.576172 
	C401.484283,445.386322 356.032562,455.844635 325.367493,433.106415 
	C316.591034,426.598663 309.279358,418.557068 305.287567,408.122192 
	C303.876434,404.433441 301.676208,402.970764 297.810730,402.979401 
	C265.986877,403.050446 234.162613,403.073578 202.339111,402.948669 
	C198.324112,402.932892 196.449341,404.730896 194.880447,408.120667 
	C185.625580,428.117157 170.197998,440.454254 148.393723,444.116669 
	C129.339218,447.317200 112.503410,442.023529 97.942238,429.406891 
	C91.150970,423.522461 85.964851,416.396393 82.712807,408.055969 
	C81.159027,404.071045 78.684265,402.820099 74.716866,402.963440 
	C69.725052,403.143768 64.721230,403.023132 59.722923,402.987122 
	C39.214371,402.839325 22.507912,386.449921 22.036192,365.993317 
	C21.947866,362.163025 22.010401,358.329224 22.003323,353.997559 
M379.771027,196.762665 
	C376.473419,189.658340 370.417786,187.134384 363.112427,187.065674 
	C350.614594,186.948105 338.114105,187.108383 325.616516,186.977325 
	C322.395508,186.943558 320.795349,188.226562 319.862701,191.217636 
	C317.780029,197.896744 315.200439,204.432007 313.385040,211.177063 
	C312.788422,213.393860 313.178741,216.542877 314.388062,218.467407 
	C320.680908,228.481918 327.391052,238.233917 333.941559,248.086884 
	C339.692017,256.736511 340.059753,260.703430 333.933777,268.960541 
	C317.106262,291.642212 303.637970,315.910828 296.946442,343.580139 
	C296.907410,343.741730 296.845428,343.897675 296.796021,344.056824 
	C295.196411,349.210236 292.167908,353.025482 286.563232,353.800293 
	C280.769073,354.601318 276.785156,351.673889 273.691528,346.976074 
	C265.259796,334.172119 256.800140,321.384644 248.173508,308.711792 
	C244.165115,302.823303 244.321564,297.380005 248.433746,291.651428 
	C253.194183,285.019775 257.532379,278.082581 262.361542,271.503845 
	C264.625397,268.419830 264.521210,266.217896 262.188934,263.190643 
	C253.341431,251.706879 244.753983,240.022537 236.088760,228.398697 
	C228.696075,218.481842 228.901031,214.930420 237.879181,206.151215 
	C241.540390,202.571136 245.629456,199.428604 249.991333,195.685867 
	C243.978485,190.633911 240.000397,186.473618 233.078995,186.898926 
	C224.943726,187.398834 216.743927,187.273834 208.590912,186.948486 
	C199.142670,186.571442 192.897568,190.423691 188.768616,199.021896 
	C180.619019,215.992722 171.771561,232.628006 163.592133,249.585083 
	C157.194351,262.848541 147.077667,270.774475 132.778992,274.178040 
	C108.632607,279.925629 84.595886,286.134491 60.518578,292.171448 
	C51.572083,294.414612 46.538616,299.187805 46.383389,307.353394 
	C46.019226,326.509644 46.013103,345.682220 46.377190,364.838379 
	C46.536011,373.194366 52.589310,378.452118 61.059856,378.908051 
	C64.217834,379.078033 67.390961,378.984833 70.557137,378.980530 
	C77.674149,378.970856 77.674149,378.962952 79.064468,371.870697 
	C84.486404,344.212494 109.617386,323.295502 137.746826,323.028320 
	C167.681656,322.743927 192.454041,343.132294 198.486313,373.494781 
	C199.377502,377.980499 201.092819,379.075134 205.295639,379.054993 
	C234.292572,378.915833 263.290497,378.985382 292.288086,378.983826 
	C300.276581,378.983398 300.276581,378.977173 301.995239,371.011414 
	C310.938995,329.558105 358.941681,309.727509 394.391693,332.909698 
	C408.928650,342.416016 417.944916,355.805817 421.049744,372.899719 
	C421.895264,377.554840 423.663544,379.357697 428.528931,379.089844 
	C436.005798,378.678192 443.522766,379.053650 451.020905,378.955444 
	C461.967194,378.812073 467.763245,373.123962 467.821259,362.258820 
	C467.920929,343.594269 467.788696,324.928467 467.878998,306.263794 
	C467.919495,297.889191 464.423462,291.990509 456.802307,288.329437 
	C447.641388,283.928772 438.673859,279.125427 429.510468,274.730194 
	C419.805603,270.075256 412.739777,263.018341 407.993927,253.330460 
	C398.831085,234.625824 389.407532,216.048874 379.771027,196.762665 
M398.069702,383.609772 
	C397.738708,381.490997 397.400818,379.373291 397.077728,377.253326 
	C393.494049,353.736816 369.926849,342.691925 348.814423,349.415161 
	C333.491058,354.294861 319.363922,374.665649 325.946838,394.493896 
	C330.622620,408.577789 345.711029,421.105560 360.116699,420.922150 
	C382.621735,420.635651 397.747772,403.816711 398.069702,383.609772 
M143.656906,420.288269 
	C160.412247,417.220367 170.775131,407.107849 174.191956,390.972900 
	C179.321701,366.749207 160.483795,342.486786 129.636688,348.396667 
	C111.317909,351.906281 99.135246,371.451813 102.224281,390.078003 
	C105.304955,408.653809 124.064095,422.761292 143.656906,420.288269 
z"/>
<path fill="#1C2328" opacity="1.000000" stroke="none" 
	d="
M276.127899,104.899246 
	C277.211395,107.922073 278.308380,110.534225 279.133057,113.229683 
	C281.182434,119.927971 278.187714,126.340233 271.987183,128.798157 
	C265.731140,131.278091 259.018921,128.818222 256.270264,122.263245 
	C251.199326,110.170029 246.400253,97.952087 241.889297,85.639053 
	C239.441452,78.957443 242.680206,72.373489 248.769821,70.007095 
	C255.313217,67.464371 261.805328,69.977905 264.790771,76.822182 
	C268.773224,85.952171 272.296783,95.282310 276.127899,104.899246 
z"/>
<path fill="#1C2328" opacity="1.000000" stroke="none" 
	d="
M333.677002,99.584412 
	C330.495605,107.333862 327.685730,114.828514 324.364136,122.089081 
	C320.244629,131.093842 308.814819,132.542404 303.454926,124.383095 
	C301.482239,121.380089 300.827209,116.133339 301.969299,112.710129 
	C306.072479,100.412048 310.956085,88.351944 316.036438,76.411079 
	C318.885681,69.714157 325.560577,67.402039 331.819305,70.015144 
	C338.192169,72.675903 340.960815,78.610069 338.779358,85.625961 
	C337.348389,90.228142 335.489014,94.697121 333.677002,99.584412 
z"/>
<path fill="#474084" opacity="1.000000" stroke="none" 
	d="
M379.931519,197.090836 
	C389.407532,216.048874 398.831085,234.625824 407.993927,253.330460 
	C412.739777,263.018341 419.805603,270.075256 429.510468,274.730194 
	C438.673859,279.125427 447.641388,283.928772 456.802307,288.329437 
	C464.423462,291.990509 467.919495,297.889191 467.878998,306.263794 
	C467.788696,324.928467 467.920929,343.594269 467.821259,362.258820 
	C467.763245,373.123962 461.967194,378.812073 451.020905,378.955444 
	C443.522766,379.053650 436.005798,378.678192 428.528931,379.089844 
	C423.663544,379.357697 421.895264,377.554840 421.049744,372.899719 
	C417.944916,355.805817 408.928650,342.416016 394.391693,332.909698 
	C358.941681,309.727509 310.938995,329.558105 301.995239,371.011414 
	C300.276581,378.977173 300.276581,378.983398 292.288086,378.983826 
	C263.290497,378.985382 234.292572,378.915833 205.295639,379.054993 
	C201.092819,379.075134 199.377502,377.980499 198.486313,373.494781 
	C192.454041,343.132294 167.681656,322.743927 137.746826,323.028320 
	C109.617386,323.295502 84.486404,344.212494 79.064468,371.870697 
	C77.674149,378.962952 77.674149,378.970856 70.557137,378.980530 
	C67.390961,378.984833 64.217834,379.078033 61.059856,378.908051 
	C52.589310,378.452118 46.536011,373.194366 46.377190,364.838379 
	C46.013103,345.682220 46.019226,326.509644 46.383389,307.353394 
	C46.538616,299.187805 51.572083,294.414612 60.518578,292.171448 
	C84.595886,286.134491 108.632607,279.925629 132.778992,274.178040 
	C147.077667,270.774475 157.194351,262.848541 163.592133,249.585083 
	C171.771561,232.628006 180.619019,215.992722 188.768616,199.021896 
	C192.897568,190.423691 199.142670,186.571442 208.590912,186.948486 
	C216.743927,187.273834 224.943726,187.398834 233.078995,186.898926 
	C240.000397,186.473618 243.978485,190.633911 249.991333,195.685867 
	C245.629456,199.428604 241.540390,202.571136 237.879181,206.151215 
	C228.901031,214.930420 228.696075,218.481842 236.088760,228.398697 
	C244.753983,240.022537 253.341431,251.706879 262.188934,263.190643 
	C264.521210,266.217896 264.625397,268.419830 262.361542,271.503845 
	C257.532379,278.082581 253.194183,285.019775 248.433746,291.651428 
	C244.321564,297.380005 244.165115,302.823303 248.173508,308.711792 
	C256.800140,321.384644 265.259796,334.172119 273.691528,346.976074 
	C276.785156,351.673889 280.769073,354.601318 286.563232,353.800293 
	C292.167908,353.025482 295.196411,349.210236 296.796021,344.056824 
	C296.845428,343.897675 296.907410,343.741730 296.946442,343.580139 
	C303.637970,315.910828 317.106262,291.642212 333.933777,268.960541 
	C340.059753,260.703430 339.692017,256.736511 333.941559,248.086884 
	C327.391052,238.233917 320.680908,228.481918 314.388062,218.467407 
	C313.178741,216.542877 312.788422,213.393860 313.385040,211.177063 
	C315.200439,204.432007 317.780029,197.896744 319.862701,191.217636 
	C320.795349,188.226562 322.395508,186.943558 325.616516,186.977325 
	C338.114105,187.108383 350.614594,186.948105 363.112427,187.065674 
	C370.417786,187.134384 376.473419,189.658340 379.931519,197.090836 
z"/>
<path fill="#747477" opacity="1.000000" stroke="none" 
	d="
M398.071594,384.065125 
	C397.747772,403.816711 382.621735,420.635651 360.116699,420.922150 
	C345.711029,421.105560 330.622620,408.577789 325.946838,394.493896 
	C319.363922,374.665649 333.491058,354.294861 348.814423,349.415161 
	C369.926849,342.691925 393.494049,353.736816 397.077728,377.253326 
	C397.400818,379.373291 397.738708,381.490997 398.071594,384.065125 
z"/>
<path fill="#747477" opacity="1.000000" stroke="none" 
	d="
M143.259628,420.463684 
	C124.064095,422.761292 105.304955,408.653809 102.224281,390.078003 
	C99.135246,371.451813 111.317909,351.906281 129.636688,348.396667 
	C160.483795,342.486786 179.321701,366.749207 174.191956,390.972900 
	C170.775131,407.107849 160.412247,417.220367 143.259628,420.463684 
z"/>
</svg>